<svg width="255" height="200" viewBox="0 0 255 200" fill="none" xmlns="http://www.w3.org/2000/svg">
<mask id="mask0_2_2383" style="mask-type:alpha" maskUnits="userSpaceOnUse" x="0" y="0" width="255" height="200">
<rect width="255" height="200" rx="4" fill="white"/>
</mask>
<g mask="url(#mask0_2_2383)">
<rect width="255" height="200" rx="4" fill="#F7F7F7"/>
<circle cx="126.244" cy="98" r="68.5" stroke="#666666"/>
<circle cx="126.244" cy="98" r="80.5" stroke="#666666" stroke-dasharray="2 2"/>
<circle cx="127.244" cy="31" r="17.5" fill="white" stroke="white"/>
<path fill-rule="evenodd" clip-rule="evenodd" d="M119.244 24C118.139 24 117.244 24.8954 117.244 26C117.244 27.1046 118.139 28 119.244 28H135.244C136.348 28 137.244 27.1046 137.244 26C137.244 24.8954 136.348 24 135.244 24H119.244ZM121.244 26C121.244 26.5523 120.796 27 120.244 27C119.691 27 119.244 26.5523 119.244 26C119.244 25.4477 119.691 25 120.244 25C120.796 25 121.244 25.4477 121.244 26ZM128.244 26C128.244 25.4477 128.691 25 129.244 25H134.244C134.796 25 135.244 25.4477 135.244 26C135.244 26.5523 134.796 27 134.244 27H129.244C128.691 27 128.244 26.5523 128.244 26ZM119.244 29C118.139 29 117.244 29.8954 117.244 31C117.244 32.1046 118.139 33 119.244 33H135.244C136.348 33 137.244 32.1046 137.244 31C137.244 29.8954 136.348 29 135.244 29H119.244ZM121.244 31C121.244 31.5523 120.796 32 120.244 32C119.691 32 119.244 31.5523 119.244 31C119.244 30.4477 119.691 30 120.244 30C120.796 30 121.244 30.4477 121.244 31ZM128.244 31C128.244 30.4477 128.691 30 129.244 30H134.244C134.796 30 135.244 30.4477 135.244 31C135.244 31.5523 134.796 32 134.244 32H129.244C128.691 32 128.244 31.5523 128.244 31ZM117.244 36C117.244 34.8954 118.139 34 119.244 34H135.244C136.348 34 137.244 34.8954 137.244 36C137.244 37.1046 136.348 38 135.244 38H119.244C118.139 38 117.244 37.1046 117.244 36ZM120.244 37C120.796 37 121.244 36.5523 121.244 36C121.244 35.4477 120.796 35 120.244 35C119.691 35 119.244 35.4477 119.244 36C119.244 36.5523 119.691 37 120.244 37ZM129.244 35C128.691 35 128.244 35.4477 128.244 36C128.244 36.5523 128.691 37 129.244 37H134.244C134.796 37 135.244 36.5523 135.244 36C135.244 35.4477 134.796 35 134.244 35H129.244Z" fill="#00A75D"/>
<circle cx="127.244" cy="169" r="17.5" fill="white" stroke="white"/>
<path fill-rule="evenodd" clip-rule="evenodd" d="M121.406 177.471C122.349 178.161 123.403 178.679 124.521 179L126.079 177.68C126.406 177.403 126.818 177.252 127.244 177.252C127.669 177.252 128.081 177.403 128.408 177.68L129.966 179C131.084 178.679 132.138 178.161 133.082 177.471L133.04 175.41C133.031 174.977 133.171 174.555 133.436 174.217C133.702 173.878 134.075 173.645 134.492 173.557L136.477 173.14C136.927 172.05 137.187 170.888 137.244 169.708L135.635 168.457C135.297 168.194 135.06 167.819 134.966 167.397C134.871 166.975 134.925 166.532 135.117 166.146L136.034 164.307C135.476 163.27 134.746 162.339 133.876 161.556L131.912 162.056C131.5 162.161 131.064 162.116 130.681 161.928C130.297 161.74 129.991 161.421 129.814 161.027L128.973 159.151C128.411 159.052 127.833 159 127.244 159C126.664 159 126.086 159.05 125.515 159.151L124.674 161.027C124.497 161.421 124.19 161.74 123.807 161.928C123.424 162.116 122.988 162.161 122.575 162.056L120.612 161.556C119.741 162.339 119.011 163.27 118.453 164.307L119.37 166.146C119.563 166.532 119.617 166.975 119.522 167.397C119.427 167.819 119.19 168.194 118.852 168.457L117.244 169.708C117.301 170.888 117.56 172.05 118.011 173.14L119.996 173.558C120.413 173.645 120.786 173.879 121.051 174.217C121.316 174.555 121.457 174.978 121.448 175.411L121.406 177.471ZM127.257 174.975C130.545 174.975 133.21 172.262 133.21 168.915C133.21 165.569 130.545 162.856 127.257 162.856C123.969 162.856 121.303 165.569 121.303 168.915C121.303 172.262 123.969 174.975 127.257 174.975Z" fill="#00A75D"/>
<circle cx="70.2765" cy="64.0329" r="17.5" transform="rotate(124.54 70.2765 64.0329)" fill="white" stroke="white"/>
<path fill-rule="evenodd" clip-rule="evenodd" d="M61.2439 55.0003C60.6916 55.0003 60.2439 55.448 60.2439 56.0003V68.0003C60.2439 68.5526 60.6916 69.0003 61.2439 69.0003H79.2439C79.7962 69.0003 80.2439 68.5526 80.2439 68.0003V56.0003C80.2439 55.448 79.7962 55.0003 79.2439 55.0003H61.2439ZM62.7439 71.0003C62.4678 71.0003 62.2439 71.2242 62.2439 71.5003C62.2439 71.7764 62.4678 72.0003 62.7439 72.0003H77.7439C78.02 72.0003 78.2439 71.7764 78.2439 71.5003C78.2439 71.2242 78.02 71.0003 77.7439 71.0003H62.7439Z" fill="#00A75D"/>
<rect x="62.2439" y="57.0003" width="16" height="10" rx="1" fill="white"/>
<path d="M67.2439 69.0003H73.2439L72.4939 71.0003H67.9939L67.2439 69.0003Z" fill="#00A75D"/>
<rect x="68.2439" y="68.0003" width="4" height="1" rx="0.5" fill="white"/>
<circle cx="65.1271" cy="131.127" r="17.5" transform="rotate(63.5934 65.1271 131.127)" fill="white" stroke="white"/>
<path fill-rule="evenodd" clip-rule="evenodd" d="M59.6075 125.693C59.217 125.303 58.5838 125.303 58.1933 125.693L53.9506 129.936C53.5601 130.327 53.5601 130.96 53.9506 131.35L58.1933 135.593C58.5838 135.983 59.217 135.983 59.6075 135.593C59.998 135.202 59.998 134.569 59.6075 134.179L56.072 130.643L59.6075 127.108C59.998 126.717 59.998 126.084 59.6075 125.693Z" fill="#00A75D"/>
<path fill-rule="evenodd" clip-rule="evenodd" d="M70.5365 125.693C70.9271 125.303 71.5602 125.303 71.9508 125.693L76.1934 129.936C76.5839 130.327 76.5839 130.96 76.1934 131.35L71.9508 135.593C71.5602 135.983 70.9271 135.983 70.5365 135.593C70.146 135.202 70.146 134.569 70.5365 134.179L74.0721 130.643L70.5365 127.108C70.146 126.717 70.146 126.084 70.5365 125.693Z" fill="#00A75D"/>
<rect x="66.3481" y="123" width="2" height="16" rx="1" transform="rotate(15 66.3481 123)" fill="#00A75D"/>
<path d="M102.369 117C97.8813 117 94.2437 112.54 94.2437 107.038C94.2437 101.537 97.8813 97.0769 102.369 97.0769C102.599 97.0769 102.827 97.0887 103.052 97.1117C104.717 91.29 109.239 87.1154 114.556 87.1154C116.438 87.1154 118.221 87.6385 119.812 88.5726C122.491 83.4186 127.193 80 132.547 80C138.915 80 144.361 84.8354 146.576 91.6747C147.292 91.4847 148.035 91.3846 148.797 91.3846C154.567 91.3846 159.244 97.1188 159.244 104.192C159.244 111.266 154.567 117 148.797 117H102.369Z" fill="#00A75D"/>
<path d="M119.605 98.3916L116.125 109H113.321L118.076 96.2031H119.86L119.605 98.3916ZM122.497 109L119.007 98.3916L118.726 96.2031H120.528L125.309 109H122.497ZM122.338 104.236V106.302H115.58V104.236H122.338ZM131.479 104.438H128.218V102.382H131.479C131.983 102.382 132.393 102.3 132.709 102.136C133.026 101.966 133.257 101.731 133.404 101.433C133.55 101.134 133.624 100.797 133.624 100.422C133.624 100.041 133.55 99.6865 133.404 99.3584C133.257 99.0303 133.026 98.7666 132.709 98.5674C132.393 98.3682 131.983 98.2686 131.479 98.2686H129.132V109H126.496V96.2031H131.479C132.481 96.2031 133.339 96.3848 134.054 96.748C134.775 97.1055 135.326 97.6006 135.707 98.2334C136.087 98.8662 136.278 99.5898 136.278 100.404C136.278 101.23 136.087 101.945 135.707 102.549C135.326 103.152 134.775 103.618 134.054 103.946C133.339 104.274 132.481 104.438 131.479 104.438ZM140.901 96.2031V109H138.273V96.2031H140.901Z" fill="white"/>
<circle cx="189.044" cy="69.3127" r="17.5" transform="rotate(63.5934 189.044 69.3127)" fill="white" stroke="white"/>
<path d="M198.012 64.4832C198.231 64.1891 198.207 63.7709 197.939 63.5044L193.842 59.4266L193.758 59.3542C193.464 59.137 193.047 59.1621 192.782 59.429L192.709 59.5133C192.492 59.8074 192.517 60.224 192.784 60.4897L195.594 63.2858L183.792 63.2858L183.69 63.2926C183.324 63.3423 183.042 63.6561 183.042 64.0358C183.042 64.45 183.377 64.7858 183.792 64.7858L195.594 64.7858L192.784 67.5821L192.711 67.6661C192.493 67.9592 192.516 68.3759 192.782 68.6428C193.074 68.9364 193.549 68.9375 193.842 68.6452L197.939 64.5675L197.943 64.5623C197.966 64.5394 197.987 64.515 198.007 64.4894L198.012 64.4832Z" fill="#00A75D"/>
<path d="M194.798 74.7074C195.164 74.6578 195.446 74.344 195.446 73.9643C195.446 73.5501 195.11 73.2143 194.696 73.2143L182.894 73.2143L185.703 70.4179L185.776 70.334C185.995 70.0408 185.971 69.6241 185.706 69.3572C185.413 69.0637 184.939 69.0626 184.645 69.3548L180.548 73.4326L180.544 73.438C180.521 73.4607 180.5 73.485 180.481 73.5105L180.475 73.5168C180.256 73.8109 180.281 74.2292 180.548 74.4957L184.645 78.5735L184.729 78.6459C185.023 78.8631 185.44 78.8379 185.706 78.571C185.998 78.2774 185.997 77.8026 185.703 77.5104L182.895 74.7143L194.696 74.7143L194.798 74.7074Z" fill="#00A75D"/>
<path d="M198.012 64.4832C198.231 64.1891 198.207 63.7709 197.939 63.5044L193.842 59.4266L193.758 59.3542C193.464 59.137 193.047 59.1621 192.782 59.429L192.709 59.5133C192.492 59.8074 192.517 60.224 192.784 60.4897L195.594 63.2858L183.792 63.2858L183.69 63.2926C183.324 63.3423 183.042 63.6561 183.042 64.0358C183.042 64.45 183.377 64.7858 183.792 64.7858L195.594 64.7858L192.784 67.5821L192.711 67.6661C192.493 67.9592 192.516 68.3759 192.782 68.6428C193.074 68.9364 193.549 68.9375 193.842 68.6452L197.939 64.5675L197.943 64.5623C197.966 64.5394 197.987 64.515 198.007 64.4894L198.012 64.4832Z" stroke="#00A75D" stroke-width="0.5"/>
<path d="M194.798 74.7074C195.164 74.6578 195.446 74.344 195.446 73.9643C195.446 73.5501 195.11 73.2143 194.696 73.2143L182.894 73.2143L185.703 70.4179L185.776 70.334C185.995 70.0408 185.971 69.6241 185.706 69.3572C185.413 69.0637 184.939 69.0626 184.645 69.3548L180.548 73.4326L180.544 73.438C180.521 73.4607 180.5 73.485 180.481 73.5105L180.475 73.5168C180.256 73.8109 180.281 74.2292 180.548 74.4957L184.645 78.5735L184.729 78.6459C185.023 78.8631 185.44 78.8379 185.706 78.571C185.998 78.2774 185.997 77.8026 185.703 77.5104L182.895 74.7143L194.696 74.7143L194.798 74.7074Z" stroke="#00A75D" stroke-width="0.5"/>
<circle cx="184.211" cy="138.622" r="17.5" transform="rotate(124.54 184.211 138.622)" fill="white" stroke="white"/>
<path fill-rule="evenodd" clip-rule="evenodd" d="M184.13 140.138H184.103C182.883 140.134 181.74 139.656 180.884 138.792C180.026 137.929 179.557 136.783 179.562 135.566C179.562 133.05 181.611 131 184.13 131C186.65 131 188.699 133.05 188.699 135.569C188.699 138.088 186.65 140.138 184.13 140.138ZM184.13 132.5C182.438 132.5 181.062 133.877 181.062 135.569C181.059 136.389 181.373 137.156 181.948 137.735C182.523 138.314 183.289 138.635 184.105 138.638L184.13 139.388V138.638C185.822 138.638 187.199 137.262 187.199 135.569C187.199 133.877 185.822 132.5 184.13 132.5Z" fill="#00A75D"/>
<path d="M189.389 138.501C189.442 138.876 189.763 139.147 190.131 139.147C190.165 139.147 190.2 139.145 190.235 139.14C192.01 138.891 193.351 137.351 193.355 135.556C193.355 133.773 192.078 132.269 190.32 131.98C189.909 131.915 189.526 132.189 189.458 132.598C189.391 133.007 189.668 133.393 190.076 133.46C191.107 133.629 191.855 134.511 191.855 135.554C191.853 136.606 191.068 137.508 190.028 137.654C189.617 137.711 189.332 138.09 189.389 138.501Z" fill="#00A75D"/>
<path d="M192.404 145.049C192.518 145.348 192.803 145.532 193.105 145.532C193.194 145.532 193.284 145.516 193.372 145.483C194.802 144.938 195.016 143.945 195.016 143.401C195.016 142.51 194.507 141.372 192.084 141.009C191.671 140.956 191.291 141.229 191.23 141.639C191.169 142.05 191.452 142.431 191.861 142.493C192.959 142.657 193.516 142.963 193.516 143.401C193.516 143.538 193.516 143.823 192.838 144.081C192.451 144.228 192.256 144.662 192.404 145.049Z" fill="#00A75D"/>
<path fill-rule="evenodd" clip-rule="evenodd" d="M177.421 144.596C177.421 147.791 182.471 147.791 184.13 147.791C185.965 147.791 190.838 147.791 190.838 144.613C190.838 141.414 185.789 141.414 184.13 141.414C182.471 141.414 177.421 141.414 177.421 144.596ZM178.921 144.596C178.921 143.206 181.754 142.914 184.13 142.914C186.506 142.914 189.338 143.209 189.338 144.613C189.338 146 186.506 146.291 184.13 146.291C181.754 146.291 178.921 145.997 178.921 144.596Z" fill="#00A75D"/>
<path d="M178.129 139.147C178.095 139.147 178.06 139.145 178.025 139.14C176.25 138.891 174.91 137.351 174.906 135.558C174.906 133.773 176.183 132.269 177.941 131.98C178.362 131.914 178.735 132.191 178.803 132.598C178.87 133.007 178.593 133.393 178.185 133.46C177.154 133.629 176.406 134.511 176.406 135.556C176.408 136.606 177.193 137.509 178.232 137.654C178.643 137.711 178.928 138.09 178.871 138.501C178.818 138.876 178.497 139.147 178.129 139.147Z" fill="#00A75D"/>
<path d="M174.889 145.483C174.977 145.516 175.067 145.532 175.156 145.532C175.458 145.532 175.743 145.348 175.857 145.049C176.005 144.662 175.81 144.228 175.423 144.081C174.744 143.822 174.744 143.538 174.744 143.401C174.744 142.963 175.301 142.657 176.399 142.493C176.808 142.431 177.091 142.05 177.03 141.639C176.968 141.229 176.59 140.957 176.177 141.009C173.753 141.372 173.244 142.511 173.244 143.401C173.244 143.944 173.458 144.937 174.889 145.483Z" fill="#00A75D"/>
<path fill-rule="evenodd" clip-rule="evenodd" d="M184.13 140.138H184.103C182.883 140.134 181.74 139.656 180.884 138.792C180.026 137.929 179.557 136.783 179.562 135.566C179.562 133.05 181.611 131 184.13 131C186.65 131 188.699 133.05 188.699 135.569C188.699 138.088 186.65 140.138 184.13 140.138ZM184.13 132.5C182.438 132.5 181.062 133.877 181.062 135.569C181.059 136.389 181.373 137.156 181.948 137.735C182.523 138.314 183.289 138.635 184.105 138.638L184.13 139.388V138.638C185.822 138.638 187.199 137.262 187.199 135.569C187.199 133.877 185.822 132.5 184.13 132.5Z" stroke="#00A75D" stroke-width="0.5"/>
<path d="M189.389 138.501C189.442 138.876 189.763 139.147 190.131 139.147C190.165 139.147 190.2 139.145 190.235 139.14C192.01 138.891 193.351 137.351 193.355 135.556C193.355 133.773 192.078 132.269 190.32 131.98C189.909 131.915 189.526 132.189 189.458 132.598C189.391 133.007 189.668 133.393 190.076 133.46C191.107 133.629 191.855 134.511 191.855 135.554C191.853 136.606 191.068 137.508 190.028 137.654C189.617 137.711 189.332 138.09 189.389 138.501Z" stroke="#00A75D" stroke-width="0.5"/>
<path d="M192.404 145.049C192.518 145.348 192.803 145.532 193.105 145.532C193.194 145.532 193.284 145.516 193.372 145.483C194.802 144.938 195.016 143.945 195.016 143.401C195.016 142.51 194.507 141.372 192.084 141.009C191.671 140.956 191.291 141.229 191.23 141.639C191.169 142.05 191.452 142.431 191.861 142.493C192.959 142.657 193.516 142.963 193.516 143.401C193.516 143.538 193.516 143.823 192.838 144.081C192.451 144.228 192.256 144.662 192.404 145.049Z" stroke="#00A75D" stroke-width="0.5"/>
<path fill-rule="evenodd" clip-rule="evenodd" d="M177.421 144.596C177.421 147.791 182.471 147.791 184.13 147.791C185.965 147.791 190.838 147.791 190.838 144.613C190.838 141.414 185.789 141.414 184.13 141.414C182.471 141.414 177.421 141.414 177.421 144.596ZM178.921 144.596C178.921 143.206 181.754 142.914 184.13 142.914C186.506 142.914 189.338 143.209 189.338 144.613C189.338 146 186.506 146.291 184.13 146.291C181.754 146.291 178.921 145.997 178.921 144.596Z" stroke="#00A75D" stroke-width="0.5"/>
<path d="M178.129 139.147C178.095 139.147 178.06 139.145 178.025 139.14C176.25 138.891 174.91 137.351 174.906 135.558C174.906 133.773 176.183 132.269 177.941 131.98C178.362 131.914 178.735 132.191 178.803 132.598C178.87 133.007 178.593 133.393 178.185 133.46C177.154 133.629 176.406 134.511 176.406 135.556C176.408 136.606 177.193 137.509 178.232 137.654C178.643 137.711 178.928 138.09 178.871 138.501C178.818 138.876 178.497 139.147 178.129 139.147Z" stroke="#00A75D" stroke-width="0.5"/>
<path d="M174.889 145.483C174.977 145.516 175.067 145.532 175.156 145.532C175.458 145.532 175.743 145.348 175.857 145.049C176.005 144.662 175.81 144.228 175.423 144.081C174.744 143.822 174.744 143.538 174.744 143.401C174.744 142.963 175.301 142.657 176.399 142.493C176.808 142.431 177.091 142.05 177.03 141.639C176.968 141.229 176.59 140.957 176.177 141.009C173.753 141.372 173.244 142.511 173.244 143.401C173.244 143.944 173.458 144.937 174.889 145.483Z" stroke="#00A75D" stroke-width="0.5"/>
</g>
</svg>
