<?xml version="1.0" encoding="UTF-8"?>
<svg width="144px" height="72px" viewBox="0 0 144 72" version="1.1" xmlns="http://www.w3.org/2000/svg" xmlns:xlink="http://www.w3.org/1999/xlink">
    <!-- Generator: Sketch 63.1 (92452) - https://sketch.com -->
    <title>logo</title>
    <desc>Created with Sketch.</desc>
    <g id="logo" stroke="none" stroke-width="1" fill="none" fill-rule="evenodd">
        <path d="M88.38945,28.4859938 L88.38945,38.2217438 C88.38945,39.7663688 88.7292,40.8789938 89.4103875,41.5584938 C90.09045,42.2396813 90.9808875,42.5794313 92.07945,42.5794313 C93.1521375,42.5794313 94.0363875,42.2261813 94.72995,41.5196813 C95.42295,40.8126188 95.7700125,39.7134938 95.7700125,38.2217438 L95.7700125,28.4859938 L101.658262,28.4859938 L101.658262,47.2116188 C101.658262,48.9126188 101.402887,50.3582438 100.8927,51.5496188 C100.382512,52.7404313 99.6962625,53.7146813 98.8322625,54.4740563 C97.9682625,55.2334313 96.9535125,55.7891813 95.7897,56.1429938 C94.6247625,56.4962438 93.37545,56.6728688 92.0406375,56.6728688 C90.8886375,56.6728688 89.7957,56.5356188 88.76295,56.2605563 C87.7285125,55.9854938 86.799825,55.5664313 85.9752,55.0044938 C85.1511375,54.4414313 84.4502625,53.7281813 83.8753875,52.8647438 C83.298825,52.0013063 82.893825,50.9668688 82.6581375,49.7631188 L88.5463875,49.7631188 C88.8343875,50.4173063 89.25345,50.8824938 89.8030125,51.1575563 C90.352575,51.4320563 91.09845,51.5693063 92.0406375,51.5693063 C93.3490125,51.5693063 94.2973875,51.2486813 94.8868875,50.6074313 C95.475825,49.9656188 95.7700125,48.8996813 95.7700125,47.4079313 L95.7700125,45.6023063 L95.691825,45.6023063 C95.167575,46.3616813 94.50045,46.9635563 93.6887625,47.4079313 C92.8776375,47.8534313 91.96245,48.0756188 90.9415125,48.0756188 C89.920575,48.0756188 88.9063875,47.8922438 87.89895,47.5254938 C86.89095,47.1598688 85.9881375,46.5838688 85.18995,45.7986188 C84.3912,45.0133688 83.7437625,43.9991813 83.2465125,42.7560563 C82.749825,41.5129313 82.5006375,40.0020563 82.5006375,38.2217438 L82.5006375,28.4859938 L88.38945,28.4859938 Z M130.612387,28.4706375 L130.612387,38.2063875 C130.612387,39.7510125 130.952137,40.863075 131.633325,41.5431375 C132.313387,42.224325 133.203825,42.564075 134.302387,42.564075 C135.375075,42.564075 136.259325,42.210825 136.952887,41.504325 C137.645325,40.7972625 137.99295,39.6981375 137.99295,38.2063875 L137.99295,28.4706375 L143.8812,28.4706375 L143.8812,47.1962625 C143.8812,48.8972625 143.625825,50.3428875 143.115637,51.5342625 C142.60545,52.7245125 141.9192,53.699325 141.0552,54.4587 C140.1912,55.218075 139.17645,55.773825 138.012075,56.1276375 C136.847137,56.4808875 135.598387,56.6575125 134.263575,56.6575125 C133.111575,56.6575125 132.018637,56.5202625 130.985887,56.2452 C129.95145,55.9701375 129.022762,55.551075 128.197575,54.9891375 C127.374075,54.4255125 126.6732,53.712825 126.098325,52.8493875 C125.521762,51.98595 125.116762,50.9515125 124.881075,49.7477625 L130.769325,49.7477625 C131.057325,50.40195 131.476387,50.866575 132.02595,51.1422 C132.575512,51.4167 133.321387,51.55395 134.263575,51.55395 C135.57195,51.55395 136.520325,51.233325 137.109825,50.592075 C137.698762,49.9502625 137.99295,48.884325 137.99295,47.392575 L137.99295,45.58695 L137.914762,45.58695 C137.390512,46.346325 136.723387,46.9482 135.9117,47.392575 C135.100575,47.838075 134.185387,48.0602625 133.163887,48.0602625 C132.143512,48.0602625 131.129325,47.876325 130.121887,47.5101375 C129.113887,47.1445125 128.211075,46.5685125 127.412887,45.7832625 C126.614137,44.9980125 125.9667,43.983825 125.46945,42.7407 C124.972762,41.497575 124.723575,39.9867 124.723575,38.2063875 L124.723575,28.4706375 L130.612387,28.4706375 Z M71.0659125,27.9599438 C72.5835375,27.9599438 73.9836,28.2023813 75.2666625,28.6866938 C76.5486,29.1710063 77.6415375,29.8645688 78.54435,30.7673813 C79.4471625,31.6701938 80.1536625,32.7636938 80.66385,34.0450688 C81.1746,35.3281313 81.4294125,36.7675688 81.4294125,38.3633813 L81.4294125,47.8634438 L76.0125375,47.8634438 L76.0125375,44.8405688 L75.9337875,44.8405688 C75.4624125,45.9143813 74.7036,46.7710688 73.6567875,47.4123188 C72.609975,48.0535688 71.3662875,48.3741938 69.9274125,48.3741938 C68.9070375,48.3741938 67.846725,48.1778813 66.7476,47.7852563 C65.6490375,47.3926313 64.6477875,46.7840063 63.7444125,45.9599438 C62.8416,45.1353188 62.095725,44.0823188 61.5067875,42.7998188 C60.9184125,41.5173188 60.6236625,39.9726938 60.6236625,38.1670688 C60.6236625,36.7017563 60.878475,35.3410688 61.3886625,34.0844438 C61.8994125,32.8283813 62.6194125,31.7483813 63.5486625,30.8455688 C64.47735,29.9427563 65.576475,29.2362563 66.8460375,28.7255063 C68.1150375,28.2153188 69.5212875,27.9599438 71.0659125,27.9599438 Z M114.937931,22.2048938 C117.451181,22.2048938 119.334994,22.8399563 120.591056,24.1089563 C121.847681,25.3785188 122.475431,26.9940188 122.475431,28.9571438 C122.475431,30.2137688 122.206556,31.3190813 121.670494,32.2747688 C121.133869,33.2298938 120.368306,33.9695813 119.374369,34.4927063 L119.374369,34.5708938 C120.735056,35.0681438 121.788056,35.8601438 122.533931,36.9457688 C123.279806,38.0325188 123.652744,39.3347063 123.652744,40.8523313 C123.652744,41.8727063 123.495806,42.8087063 123.182494,43.6586438 C122.868056,44.5097063 122.390494,45.2488313 121.749244,45.8771438 C121.107994,46.5048938 120.303056,46.9959563 119.334994,47.3492063 C118.366369,47.7024563 117.241369,47.8790813 115.958869,47.8790813 L102.728869,47.8790813 L102.728869,22.2048938 L114.937931,22.2048938 Z M16.9254563,6.00005625 L16.9254563,47.8641188 L9.67201875,47.8641188 L9.67201875,13.2534938 L16.9254563,6.00005625 Z M7.2534375,15.9510188 L7.2534375,47.8638938 L0,47.8638938 L0,23.2044563 L7.2534375,15.9510188 Z M26.5973625,15.9505125 L26.5973625,47.86395 L19.3433625,47.86395 L19.3433625,23.2045125 L26.5973625,15.9505125 Z M50.473125,22.189425 C52.2264375,22.189425 53.7373125,22.412175 55.0074375,22.8571125 C56.2764375,23.30205 57.32325,23.9303625 58.147875,24.7414875 C58.9725,25.5526125 59.5805625,26.5077375 59.97375,27.6068625 C60.3658125,28.7059875 60.562125,29.9103 60.562125,31.218675 C60.562125,32.5276125 60.3658125,33.7381125 59.97375,34.850175 C59.5805625,35.9628 58.9725,36.917925 58.147875,37.71555 C57.32325,38.5143 56.2764375,39.1426125 55.0074375,39.599925 C53.7373125,40.0583625 52.2264375,40.2873 50.473125,40.2873 L46.74375,40.2873 L46.74375,47.8636125 L40.384125,47.8636125 L40.384125,22.189425 L50.473125,22.189425 Z M71.0659125,33.4561313 C69.7311,33.4561313 68.6516625,33.8881313 67.8270375,34.7515688 C67.0024125,35.6155688 66.5906625,36.7540688 66.5906625,38.1670688 C66.5906625,39.5806313 67.0024125,40.7191313 67.8270375,41.5825688 C68.6516625,42.4460063 69.7311,42.8780063 71.0659125,42.8780063 C72.400725,42.8780063 73.480725,42.4460063 74.3047875,41.5825688 C75.1294125,40.7191313 75.5411625,39.5806313 75.5411625,38.1670688 C75.5411625,36.7540688 75.1294125,35.6155688 74.3047875,34.7515688 C73.480725,33.8881313 72.400725,33.4561313 71.0659125,33.4561313 Z M114.663431,37.3974563 L109.088494,37.3974563 L109.088494,41.9908313 L114.663431,41.9908313 C115.579181,41.9908313 116.219869,41.7686438 116.587181,41.3231438 C116.952806,40.8787688 117.136744,40.3415813 117.136744,39.7138313 C117.136744,39.0855188 116.933681,38.5427063 116.528119,38.0848313 C116.121994,37.6269563 115.500431,37.3974563 114.663431,37.3974563 Z M50.5906875,28.0782375 L46.74375,28.0782375 L46.74375,34.3984875 L50.5906875,34.3984875 C51.951375,34.3984875 52.880625,34.0981125 53.3784375,33.495675 C53.8745625,32.8938 54.1243125,32.13555 54.1243125,31.218675 C54.1243125,30.302925 53.8745625,29.5503 53.3784375,28.9613625 C52.880625,28.3729875 51.951375,28.0782375 50.5906875,28.0782375 Z M113.878181,28.0937063 L109.088494,28.0937063 L109.088494,32.2938938 L113.878181,32.2938938 C114.715181,32.2938938 115.310869,32.0919563 115.664119,31.6858313 C116.017369,31.2802688 116.193994,30.7892063 116.193994,30.2137688 C116.193994,29.6118938 116.037056,29.1084563 115.723181,28.7023313 C115.409306,28.2962063 114.794494,28.0937063 113.878181,28.0937063 Z" id="形状" fill="#00A75D" fill-rule="nonzero"></path>
    </g>
</svg>